<?xml version="1.0" encoding="UTF-8"?>
<svg width="1200pt" height="1200pt" version="1.1" viewBox="0 0 1200 1200" xmlns="http://www.w3.org/2000/svg">
 <g fill="#b1d4df">
  <path d="m600 378.75c-120 0-221.25 97.5-221.25 221.25s97.5 221.25 221.25 221.25 221.25-97.5 221.25-221.25-101.25-221.25-221.25-221.25zm-86.25 131.25c-18.75 0-33.75-15-33.75-33.75s15-33.75 33.75-33.75 33.75 15 33.75 33.75-15 33.75-33.75 33.75z"/>
  <path d="m990 157.5h-780c-33.75 0-60 26.25-60 56.25v768.75c0 30 26.25 56.25 56.25 56.25h780c30 0 56.25-26.25 56.25-56.25v-768.75c7.5-30-18.75-56.25-52.5-56.25zm-390 738.75c-161.25 0-296.25-131.25-296.25-296.25s131.25-296.25 296.25-296.25 296.25 131.25 296.25 296.25-135 296.25-296.25 296.25zm318.75-615c-18.75 0-33.75-15-33.75-33.75s15-33.75 33.75-33.75 33.75 15 33.75 33.75-11.25 33.75-33.75 33.75z"/>
 </g>
</svg>
