<svg xmlns="http://www.w3.org/2000/svg" xmlns:xlink="http://www.w3.org/1999/xlink" width="100" zoomAndPan="magnify" viewBox="0 0 75 74.999997" height="100" preserveAspectRatio="xMidYMid meet" version="1.0"><defs><g/><clipPath id="fe541fd2b3"><path d="M 22.144531 17 L 33 17 L 33 30 L 22.144531 30 Z M 22.144531 17 " clip-rule="nonzero"/></clipPath><clipPath id="3c47a901fa"><path d="M 29 15.039062 L 41 15.039062 L 41 19 L 29 19 Z M 29 15.039062 " clip-rule="nonzero"/></clipPath><clipPath id="7faa2f5fc3"><path d="M 40 24 L 49.144531 24 L 49.144531 38 L 40 38 Z M 40 24 " clip-rule="nonzero"/></clipPath><clipPath id="99f9694742"><path d="M 39.445312 37.273438 L 42.667969 37.273438 L 42.667969 40.484375 L 39.445312 40.484375 Z M 39.445312 37.273438 " clip-rule="nonzero"/></clipPath></defs><g clip-path="url(#fe541fd2b3)"><path fill="#56aeff" d="M 23.019531 21.925781 C 24.421875 20.339844 26.371094 19.195312 28.285156 18.140625 L 28.378906 18.085938 L 28.589844 17.96875 C 29.929688 18.25 31.171875 18.632812 32.3125 19.117188 C 32.148438 21.179688 31.980469 23.238281 31.8125 25.296875 L 31.808594 25.371094 C 29.933594 26.527344 28.035156 27.726562 26.3125 29.105469 C 24.859375 28.542969 23.457031 27.898438 22.144531 27.1875 L 22.144531 27.183594 C 22.21875 25.4375 22.449219 23.847656 22.847656 22.4375 " fill-opacity="1" fill-rule="evenodd"/></g><g clip-path="url(#3c47a901fa)"><path fill="#b1d4e0" d="M 40.3125 16.023438 L 39.890625 17.082031 C 39.730469 17.070312 39.5625 17.070312 39.390625 17.070312 C 37.644531 17.070312 35.238281 17.433594 32.949219 18.042969 L 32.65625 18.121094 C 31.582031 17.636719 30.21875 17.238281 29.09375 17.023438 C 29.292969 16.675781 29.5625 16.359375 29.921875 16.039062 C 31.582031 15.417969 33.324219 15.101562 35.105469 15.097656 L 35.132812 15.097656 C 36.898438 15.097656 38.632812 15.40625 40.285156 16.015625 L 40.3125 16.023438 " fill-opacity="1" fill-rule="evenodd"/></g><path fill="#b1d4e0" d="M 48.804688 23.871094 C 48.804688 24.488281 48.734375 25.027344 48.597656 25.480469 C 48.550781 25.449219 48.507812 25.417969 48.464844 25.386719 C 48.441406 25.371094 48.417969 25.355469 48.394531 25.339844 C 48.335938 25.296875 48.273438 25.257812 48.214844 25.214844 C 47.257812 24.574219 46.226562 24.003906 45.144531 23.523438 L 44.953125 23.1875 C 43.769531 21.101562 42.378906 19.175781 40.816406 17.46875 L 41.316406 16.441406 C 41.480469 16.515625 41.644531 16.589844 41.804688 16.671875 L 41.851562 16.695312 C 43.320312 17.433594 44.660156 18.414062 45.832031 19.609375 C 47.0625 20.859375 48.0625 22.289062 48.804688 23.871094 " fill-opacity="1" fill-rule="evenodd"/><g clip-path="url(#7faa2f5fc3)"><path fill="#56aeff" d="M 49.09375 32.898438 L 49.09375 32.925781 C 49.089844 33.066406 49.085938 33.207031 49.082031 33.347656 L 49.074219 33.535156 C 48.183594 35.011719 47.175781 36.394531 46.066406 37.652344 C 44.398438 37.082031 42.78125 36.417969 41.265625 35.675781 C 41.140625 33.917969 40.789062 31.613281 40.464844 29.9375 C 40.414062 29.636719 40.363281 29.355469 40.316406 29.089844 L 40.324219 29.078125 C 41.878906 27.59375 43.359375 25.992188 44.730469 24.316406 C 46.015625 24.960938 47.210938 25.710938 48.300781 26.558594 L 48.429688 26.96875 L 48.4375 26.996094 C 48.929688 28.664062 49.152344 30.652344 49.09375 32.898438 " fill-opacity="1" fill-rule="evenodd"/></g><path fill="#56aeff" d="M 39.75 36.058594 L 39.75 36.0625 C 39.742188 36.066406 39.734375 36.070312 39.730469 36.074219 L 39.691406 36.109375 C 38.210938 37.40625 36.554688 38.539062 34.703125 39.761719 L 34.449219 39.929688 L 28.351562 37.382812 C 28.347656 37.367188 28.34375 37.351562 28.34375 37.335938 L 28.203125 36.671875 L 28.195312 36.671875 C 27.765625 34.609375 27.472656 32.378906 27.332031 30.019531 L 27.328125 29.984375 L 32.324219 26.144531 L 32.710938 25.84375 C 34.921875 26.597656 37.007812 27.488281 38.914062 28.496094 C 38.9375 28.664062 38.960938 28.828125 38.984375 28.992188 C 39.304688 31.273438 39.558594 33.644531 39.75 36.058594 " fill-opacity="1" fill-rule="evenodd"/><path fill="#56aeff" d="M 25.851562 32.261719 C 25.847656 32.261719 25.847656 32.261719 25.847656 32.265625 L 25.839844 32.273438 C 25.515625 32.554688 25.15625 32.800781 24.75 33.066406 L 24.695312 33.105469 L 23.367188 32.550781 C 23.367188 32.546875 23.363281 32.542969 23.363281 32.539062 L 23.335938 32.394531 L 23.332031 32.394531 C 23.238281 31.945312 23.175781 31.457031 23.144531 30.945312 L 23.144531 30.9375 L 24.230469 30.097656 L 24.316406 30.03125 C 24.800781 30.199219 25.253906 30.390625 25.667969 30.613281 C 25.675781 30.648438 25.679688 30.683594 25.683594 30.71875 C 25.753906 31.214844 25.808594 31.734375 25.851562 32.261719 " fill-opacity="1" fill-rule="evenodd"/><g clip-path="url(#99f9694742)"><path fill="#56aeff" d="M 42.378906 39.640625 C 42.378906 39.644531 42.375 39.644531 42.375 39.644531 L 42.367188 39.652344 C 42.046875 39.9375 41.683594 40.183594 41.28125 40.449219 L 41.226562 40.484375 L 39.894531 39.929688 C 39.894531 39.929688 39.894531 39.925781 39.890625 39.921875 L 39.863281 39.777344 L 39.859375 39.777344 C 39.765625 39.328125 39.703125 38.839844 39.671875 38.324219 L 39.671875 38.316406 L 40.761719 37.480469 L 40.84375 37.414062 C 41.328125 37.578125 41.78125 37.773438 42.199219 37.992188 C 42.203125 38.027344 42.207031 38.066406 42.214844 38.101562 C 42.28125 38.597656 42.339844 39.117188 42.378906 39.640625 " fill-opacity="1" fill-rule="evenodd"/></g><path fill="#b1d4e0" d="M 44.332031 23.511719 C 42.933594 25.230469 41.441406 26.851562 39.851562 28.375 L 39.71875 28.300781 C 39.632812 28.257812 39.550781 28.210938 39.425781 28.144531 C 39.414062 28.136719 39.398438 28.128906 39.382812 28.121094 C 37.320312 27.011719 35.09375 26.066406 32.722656 25.273438 C 32.890625 23.15625 33.0625 21.039062 33.230469 18.925781 L 33.242188 18.757812 C 35.664062 18.113281 38.390625 17.71875 40.09375 17.832031 L 40.203125 17.839844 C 41.769531 19.535156 43.148438 21.425781 44.332031 23.511719 " fill-opacity="1" fill-rule="evenodd"/><g fill="#b1d4e0" fill-opacity="1"><g transform="translate(4.624252, 46.224814)"><g><path d="M 1.40625 0 L 1.40625 -1.960938 L 4.320312 -1.960938 L 4.320312 -2.917969 L 1.40625 -2.917969 L 1.40625 -3.765625 L 4.515625 -3.765625 L 4.515625 -4.792969 L 0.300781 -4.792969 L 0.300781 0 Z M 1.40625 0 "/></g></g></g><g fill="#b1d4e0" fill-opacity="1"><g transform="translate(9.705584, 46.224814)"><g><path d="M 2.800781 0.078125 C 4.289062 0.078125 5.300781 -0.554688 5.300781 -1.984375 L 5.300781 -4.792969 L 4.199219 -4.792969 L 4.199219 -2.226562 C 4.199219 -1.265625 3.632812 -0.953125 2.800781 -0.953125 C 1.972656 -0.953125 1.40625 -1.265625 1.40625 -2.226562 L 1.40625 -4.792969 L 0.300781 -4.792969 L 0.300781 -1.984375 C 0.300781 -0.554688 1.316406 0.078125 2.800781 0.078125 Z M 2.800781 0.078125 "/></g></g></g><g fill="#b1d4e0" fill-opacity="1"><g transform="translate(15.667285, 46.224814)"><g><path d="M 3.179688 0 L 3.179688 -3.765625 L 5.140625 -3.765625 L 5.140625 -4.792969 L 0.117188 -4.792969 L 0.117188 -3.765625 L 2.078125 -3.765625 L 2.078125 0 Z M 3.179688 0 "/></g></g></g><g fill="#b1d4e0" fill-opacity="1"><g transform="translate(21.280381, 46.224814)"><g><path d="M 2.800781 0.078125 C 4.289062 0.078125 5.300781 -0.554688 5.300781 -1.984375 L 5.300781 -4.792969 L 4.199219 -4.792969 L 4.199219 -2.226562 C 4.199219 -1.265625 3.632812 -0.953125 2.800781 -0.953125 C 1.972656 -0.953125 1.40625 -1.265625 1.40625 -2.226562 L 1.40625 -4.792969 L 0.300781 -4.792969 L 0.300781 -1.984375 C 0.300781 -0.554688 1.316406 0.078125 2.800781 0.078125 Z M 2.800781 0.078125 "/></g></g></g><g fill="#b1d4e0" fill-opacity="1"><g transform="translate(27.242082, 46.224814)"><g><path d="M 4.152344 -1.835938 C 4.683594 -2.089844 5.011719 -2.59375 5.011719 -3.25 L 5.011719 -3.253906 C 5.011719 -4.195312 4.308594 -4.792969 3.25 -4.792969 L 0.300781 -4.792969 L 0.300781 0 L 1.40625 0 L 1.40625 -1.648438 L 3.0625 -1.648438 L 4.089844 0 L 5.324219 0 Z M 3.113281 -3.765625 C 3.585938 -3.765625 3.886719 -3.597656 3.886719 -3.179688 L 3.886719 -3.171875 C 3.886719 -2.753906 3.585938 -2.5625 3.113281 -2.5625 L 1.40625 -2.5625 L 1.40625 -3.765625 Z M 3.113281 -3.765625 "/></g></g></g><g fill="#b1d4e0" fill-opacity="1"><g transform="translate(32.973351, 46.224814)"><g><path d="M 4.496094 0 L 4.496094 -1.027344 L 1.40625 -1.027344 L 1.40625 -1.960938 L 4.289062 -1.960938 L 4.289062 -2.917969 L 1.40625 -2.917969 L 1.40625 -3.765625 L 4.492188 -3.765625 L 4.492188 -4.792969 L 0.300781 -4.792969 L 0.300781 0 Z M 4.496094 0 "/></g></g></g><g fill="#b1d4e0" fill-opacity="1"><g transform="translate(38.060587, 46.224814)"><g><path d="M 2.613281 0.078125 C 4.113281 0.078125 4.945312 -0.40625 4.945312 -1.347656 L 4.945312 -1.359375 C 4.945312 -2.214844 4.449219 -2.617188 2.722656 -2.953125 C 1.75 -3.148438 1.53125 -3.265625 1.53125 -3.480469 L 1.53125 -3.492188 C 1.535156 -3.734375 1.855469 -3.851562 2.546875 -3.851562 C 3.148438 -3.851562 3.929688 -3.710938 4.347656 -3.492188 L 4.851562 -4.40625 C 4.34375 -4.671875 3.449219 -4.875 2.613281 -4.875 C 1.1875 -4.875 0.40625 -4.378906 0.40625 -3.480469 L 0.40625 -3.46875 C 0.40625 -2.570312 1.039062 -2.191406 2.375 -1.9375 C 3.414062 -1.738281 3.8125 -1.625 3.8125 -1.359375 L 3.8125 -1.347656 C 3.8125 -1.050781 3.351562 -0.945312 2.546875 -0.945312 C 1.859375 -0.945312 1.199219 -1.050781 0.683594 -1.292969 L 0.183594 -0.355469 C 0.703125 -0.101562 1.613281 0.078125 2.613281 0.078125 Z M 2.613281 0.078125 "/></g></g></g><g fill="#b1d4e0" fill-opacity="1"><g transform="translate(43.596878, 46.224814)"><g><path d="M 1.40625 0 L 1.40625 -1.628906 L 3.398438 -1.628906 C 4.578125 -1.628906 5.15625 -2.226562 5.15625 -3.238281 L 5.15625 -3.25 C 5.15625 -4.175781 4.636719 -4.792969 3.390625 -4.792969 L 0.300781 -4.792969 L 0.300781 0 Z M 1.40625 -3.765625 L 3.339844 -3.765625 C 3.757812 -3.765625 4.035156 -3.582031 4.035156 -3.171875 L 4.035156 -3.160156 C 4.035156 -2.789062 3.800781 -2.5625 3.339844 -2.5625 L 1.40625 -2.5625 Z M 1.40625 -3.765625 "/></g></g></g><g fill="#b1d4e0" fill-opacity="1"><g transform="translate(49.298606, 46.224814)"><g><path d="M 3.191406 0.078125 C 5.027344 0.078125 6.144531 -0.914062 6.144531 -2.398438 L 6.144531 -2.410156 C 6.144531 -3.886719 5.027344 -4.875 3.191406 -4.875 C 1.347656 -4.875 0.230469 -3.886719 0.230469 -2.410156 L 0.230469 -2.398438 C 0.230469 -0.914062 1.347656 0.078125 3.191406 0.078125 Z M 3.191406 -0.953125 C 2.0625 -0.953125 1.351562 -1.511719 1.351562 -2.394531 L 1.351562 -2.398438 C 1.351562 -3.304688 2.019531 -3.847656 3.191406 -3.847656 C 4.308594 -3.847656 5.023438 -3.285156 5.023438 -2.398438 L 5.023438 -2.394531 C 5.023438 -1.511719 4.3125 -0.953125 3.191406 -0.953125 Z M 3.191406 -0.953125 "/></g></g></g><g fill="#b1d4e0" fill-opacity="1"><g transform="translate(56.028417, 46.224814)"><g><path d="M 4.152344 -1.835938 C 4.683594 -2.089844 5.011719 -2.59375 5.011719 -3.25 L 5.011719 -3.253906 C 5.011719 -4.195312 4.308594 -4.792969 3.25 -4.792969 L 0.300781 -4.792969 L 0.300781 0 L 1.40625 0 L 1.40625 -1.648438 L 3.0625 -1.648438 L 4.089844 0 L 5.324219 0 Z M 3.113281 -3.765625 C 3.585938 -3.765625 3.886719 -3.597656 3.886719 -3.179688 L 3.886719 -3.171875 C 3.886719 -2.753906 3.585938 -2.5625 3.113281 -2.5625 L 1.40625 -2.5625 L 1.40625 -3.765625 Z M 3.113281 -3.765625 "/></g></g></g><g fill="#b1d4e0" fill-opacity="1"><g transform="translate(61.759686, 46.224814)"><g><path d="M 3.179688 0 L 3.179688 -3.765625 L 5.140625 -3.765625 L 5.140625 -4.792969 L 0.117188 -4.792969 L 0.117188 -3.765625 L 2.078125 -3.765625 L 2.078125 0 Z M 3.179688 0 "/></g></g></g></svg>