<?xml version="1.0" encoding="UTF-8"?>
<svg width="1200pt" height="1200pt" version="1.1" viewBox="0 0 1200 1200" xmlns="http://www.w3.org/2000/svg">
 <g fill="#b1d4df">
  <path d="m1022.4 477.6c-55.199-3.6016-105.6-1.1992-171.6 4.8008-27.602 2.3984-38.398-36-32.398-94.801 8.3984-102 20.398-174 28.801-232.8 16.801-105.6-133.2-123.6-165.6-42-31.199 78-117.6 354-284.4 430.8-19.199 8.3984-31.199 28.801-31.199 50.398 0 90 0 313.2-1.1992 406.8 0 25.199 16.801 46.801 40.801 54 93.602 25.199 326.4 84 490.8 84 106.8 0 169.2-8.3984 192-108 24-104.4 54-258 76.801-376.8 23.996-127.2-31.203-169.2-142.8-176.4z"/>
  <path d="m279.6 518.4h-222c-14.398 0-26.398 12-26.398 26.398v522c0 14.398 12 26.398 26.398 26.398h222c14.398 0 26.398-12 26.398-26.398v-522c0-14.398-12-26.398-26.398-26.398zm-111.6 489.6c-27.602 0-49.199-21.602-49.199-49.199 0-27.602 21.602-49.199 49.199-49.199 27.602 0 49.199 21.602 49.199 49.199 0 27.598-21.598 49.199-49.199 49.199z"/>
 </g>
</svg>
